<?xml version="1.0" encoding="utf-8"?>
<!-- Generator: Adobe Illustrator 26.0.3, SVG Export Plug-In . SVG Version: 6.00 Build 0)  -->
<svg version="1.1" xmlns="http://www.w3.org/2000/svg" xmlns:xlink="http://www.w3.org/1999/xlink" x="0px" y="0px" viewBox="0 0 951.4 421.8" style="enable-background:new 0 0 951.4 421.8;" xml:space="preserve">
	<style type="text/css">
		.st0{display:none;}
		.st1{display:inline;fill:none;}
		.st2{display:inline;opacity:0;}
		.st3{font-family:'Pacifico-Regular';}
		.st4{font-size:198px;}
		.st5{fill:none;stroke:#000000;stroke-width:14;stroke-linecap:round;stroke-linejoin:round;stroke-miterlimit:10;}
	</style>
	<g id="下地" class="st0">
		<rect x="0" y="0" class="st1" width="951.4" height="410.69"/>
		<text transform="matrix(1 0 0 1 0 164.7329)" class="st2"><tspan x="0" y="0" class="st3 st4">welcome to </tspan><tspan x="0" y="145" class="st3 st4">          my page</tspan></text>
	</g>
	<g id="welcome">
		<path class="st5" d="M30.4,104.69c0,0-34.3,57.41,0,55.5c27-1.5,36-52.5,36-52.5s-17.52,54.1,3.74,52.55s37.26-34.55,39.26-52.55
			s-31.93-15.69-14,13c5,8,41,1,41,1l-9,3c0,0-3,15,0,16s24.78-8.39,28-10c8-4,21.09-18.67-4-24c-17.96-3.81-33.24,34.56-18,49
			c22.08,20.92,47-10,47-10l10-24c0,0,33-18,41-51s-2-27-2-27s-30,5-41,72c-12.15,73.98,43,31,43,31"/>
		<path class="st5" d="M266.4,125.69c0,0,9-23-13-19s-27,40-16,47s25.65,4.67,45-5c4-2,21,34,42-14c2.16-4.93,0.51-30.4-16-26
			c-15,4-27,18-21,41"/>
		<path class="st5" d="M321.4,118.69c0,0-17.17,15.89,12,12c15-2,26-16,26-16l-2-11c0,0-9,49-5,53s33.86-65.42,40-47
			c1,3-6.31,47.17-6.31,47.17s34.67-64.66,37.31-46.17c1,7-8,38.66-8,38.66s2,22.34,28-0.66c-6.63,2.84,37.87-9.59,45-21
			c3.06-4.9,2.51-33.77-25-15c-26.41,18.02-18.01,50.64,9.47,47.58c6.51-0.72,18.53-0.58,28.53-14.58"/>
	</g>
	<g id="to">
		<path class="st5" d="M544.4,127.69c0,0,31-18,47-19"/>
		<path class="st5" d="M557.54,118.19c0,0,33.86-27.5,38.86-51.5s-11-15-11-15s-31,25-30,78s38,16,38,16"/>
		<path class="st5" d="M639.4,113.69c0,0-16-23-31,7s5.02,37.56,5.02,37.56s22.84,2.5,25.98-22.59c5-39.97-6.83-6.77-7.35-7.97
			c0,0,11.35,17,41.35-13"/>
	</g>
	<g id="my">
		<path class="st5" d="M426.4,251.69c0,0-7.7,54.14-5,48c2.32-5.3,33.77-49.82,35.88-48c0,0,3.59,22.33-2.65,48.17
			c-6.24,25.83,32.76-72.17,36.76-45.17s-21.8,49.03,5.21,49.55c23.79,0.45,36.79-50.55,36.79-50.55s-24,56,4,48s32-47,32-47
			s-18,97-28,105c-11.1,8.88-14,7-18,6s-18-5-1-26s79-53,79-53"/>
	</g>
	<g id="page">
		<path class="st5" d="M623.4,344.69c0,0,13-93,38-93s12,32.95,12,32.95s-12.57,31.05-35.29,13.55"/>
		<path class="st5" d="M679.4,265.69c0,0-24.84,6.37,6,10c17,2,31-22,48.6-25.75c0.46-0.1-37.48,4.74-34.6,40.75c2,25,30,11,34.6,0
			c3.65-8.72,8.4-37,8.4-37s-10,58,8,48s20-11,20-11s1.81-33,36.41-39"/>
		<path class="st5" d="M806.4,251.69c-0.01,0.88-52.87,33.01-27,49c11.44,7.07,27.41-15.36,27.41-15.36l9.59-29.64
			c0,0-17.6,94.86-22.3,96.93c-4.7,2.07-22.7,25.07-34.7,6.07s80-65,80-65v-7.82c0,0,51.74-7.55,31.57-34.18
			c-7.57-10-38.74,10.39-33.57,29c5,18,1,19,16,25s40-17,40-17"/>
	</g>
</svg>
