<svg id="レイヤー_1" data-name="レイヤー 1" xmlns="http://www.w3.org/2000/svg" viewBox="0 0 806.31 1265.57">
    <defs>
        <style>
            .cls-1{fill:none;stroke:#000;stroke-linecap:round;stroke-linejoin:round;stroke-width:23px;}
        </style>
    </defs>
    <g id="welcome">
        <path class="cls-1" d="M31.45,164.52s-55,147.26,0,142.36C74.75,303,89.18,172.21,89.18,172.21S61.09,311,95.22,307.06s59.75-88.62,63-134.8S107,132,135.73,205.61c8,20.52,65.75,2.57,65.75,2.57l-14.43,7.69s-4.81,38.48,0,41,39.74-21.52,44.9-25.65c12.83-10.26,33.83-47.89-6.41-61.56-28.87-9.77-53.31,88.65-28.87,125.69,35.41,53.66,75.38-25.65,75.38-25.65l16-61.56S341,162,353.84,77.35s-3.21-69.26-3.21-69.26-48.11,12.83-65.75,184.69c-19.49,189.83,69,79.52,69,79.52" transform="translate(4.5 4.5)"/>
        <path class="cls-1" d="M409.94,218.39s14.44-59-20.85-48.74-43.3,102.6-25.66,120.56,41.14,12,72.17-12.83c6.42-5.13,33.68,87.22,67.36-35.91,3.46-12.64.82-78-25.66-66.69C453.24,185,434,221,443.62,280" transform="translate(4.5 4.5)"/>
        <path class="cls-1" d="M498.15,200.43s-27.54,40.76,19.24,30.78c24.06-5.13,41.7-41,41.7-41L555.89,162s-14.44,125.69-8,136S602.17,130.09,612,177.34c1.6,7.7-10.12,121-10.12,121s55.6-165.86,59.84-118.43c1.6,18-12.84,99.17-12.84,99.17s3.21,57.3,44.91-1.7c-10.63,7.29,60.74-24.6,72.17-53.86,4.91-12.57,4-86.63-40.09-38.48-42.36,46.17-28.87,129.9,15.18,122,10.44-1.85,29.72-1.49,45.76-37.4" transform="translate(4.5 4.5)"/>
    </g>
    <g id="to">
        <path class="cls-1" d="M205.74,589.1s59.08-39.84,89.57-42.05" transform="translate(4.5 4.5)"/>
        <path class="cls-1" d="M230.78,568.08s64.53-60.88,74.06-114-21-33.21-21-33.21-59.08,55.34-57.17,172.66S299.12,629,299.12,629" transform="translate(4.5 4.5)"/>
        <path class="cls-1" d="M386.79,558.11s-30.5-50.91-59.08,15.5,9.53,83.14,9.53,83.14,43.52,5.53,49.55-50c9.53-88.55-13-15-14-17.71,0,0,21.63,37.63,78.8-28.78" transform="translate(4.5 4.5)"/>
    </g>
    <g id="my">
        <path class="cls-1" d="M58.52,790.16S45.1,912.25,49.81,898.4c4-11.95,58.84-112.35,62.52-108.24a394.73,394.73,0,0,1-4.62,108.63C96.84,957,164.79,736,171.76,796.92s-38,110.5,9.08,111.74c41.45,1,64.1-114,64.1-114s-41.82,126.28,7,108.24,55.76-106,55.76-106-31.36,218.75-48.79,236.79c-19.34,20-24.39,15.79-31.36,13.53s-31.37-11.28-1.75-58.63S363.43,869.09,363.43,869.09" transform="translate(4.5 4.5)"/>
    </g>
    <g id="page">
        <path class="cls-1" d="M394.22,1207.71S413.29,1026.4,450,1026.4s17.61,64.24,17.61,64.24-18.44,60.53-51.7,26.42" transform="translate(4.5 4.5)"/>
        <path class="cls-1" d="M476.37,1053.69s-36.44,12.42,8.8,19.5c24.94,3.9,45.48-42.89,71.3-50.2.67-.2-55,9.24-50.76,79.44,2.93,48.74,44,21.45,50.76,0,5.35-17,12.32-72.13,12.32-72.13s-14.67,113.08,11.74,93.58,29.34-21.45,29.34-21.45,2.65-64.33,53.41-76" transform="translate(4.5 4.5)"/>
        <path class="cls-1" d="M662.68,1026.4c0,1.72-77.56,64.34-39.61,95.53,16.78,13.78,40.21-30,40.21-30l14.07-57.78s-25.82,184.94-32.72,189-33.3,48.88-50.9,11.84,117.36-126.73,117.36-126.73V1093s75.9-14.72,46.31-66.64c-11.1-19.5-56.83,20.26-49.24,56.54,7.33,35.09,1.46,37,23.47,48.74s58.68-33.15,58.68-33.15" transform="translate(4.5 4.5)"/>
    </g>
</svg>