<?xml version="1.0" encoding="utf-8"?>
<!-- Generator: Adobe Illustrator 26.0.3, SVG Export Plug-In . SVG Version: 6.00 Build 0)  -->
<svg version="1.1" xmlns="http://www.w3.org/2000/svg" xmlns:xlink="http://www.w3.org/1999/xlink" x="0px" y="0px"viewBox="0 0 448.13 163.89" style="enable-background:new 0 0 448.13 163.89;" xml:space="preserve">
	<style type="text/css">
		.st0{fill:none;stroke:#000000;stroke-width:7;stroke-linecap:round;stroke-linejoin:round;stroke-miterlimit:10;}
		.st1{fill:none;stroke:#000000;stroke-width:6;stroke-linecap:round;stroke-linejoin:round;stroke-miterlimit:10;}
	</style>
	<g id="welcome">
		<g>
			<path class="st0" d="M9.76,36.99c0,0-14.08,24.45,0,27.42c14.08,2.96,19.27-25.56,19.27-25.56S16.8,69.65,31.99,64.62
				c15.19-5.03,24.08-28,17.41-32.45s-9.63,2.22-9.63,4.08c0,1.85-1.85,14.08,23.71,8.89c0,0-5.93-0.74-4.82,5.56
				c1.11,6.3,12.6,0.74,12.6,0.74s13.67-8.96,0.69-14.63S57.66,57.49,58.73,58.76c2.43,2.9,8.85,14.52,27.62-3.07
				c0,0,4.97-6.25,10.47-13.52c3.59-4.74,7.42-9.92,10.24-14.09c1.68-2.47,3-4.58,3.72-6.04c4.01-8.14,7.92-30.91-9.4-9.87
				c-0.25,0.31-2.59,4.38-3.28,5.98c-3.78,8.83-12.31,34.38-5.62,44.38c4.17,6.23,18.53-5.78,18.53-5.78s3.32-12.62,5.73-14.84
				c1.96-1.81,11.82-5.93,12.86-0.51c0.24,1.25,0.01,3.01-0.9,5.42c-0.56,1.48,5.92-12.03-8.58-6.99
				c-10.33,3.59-9.95,27.45,1.99,24.64c11.94-2.81,17.7-9.62,17.7-9.62s0.6,12.33,11.68,9.16c4.88-2.51,6.33-5.67,7.12-14.38
				s-1.72-9.5-4.88-10.69s-11.61,2.37-13.33,11.21s2.57,14.99,7.05,15c4.48,0.01,9.94-3.01,11.3-13.54c0,0,16.67-3.2,17.78-9.71
				c1.1-6.51,0-5.77,0-5.77s-6.77,29.3-3.25,26.55c3.52-2.75,13.45-27.21,17.96-24.51c3.71,2.22-4.01,28.59-0.99,23.31
				c3.03-5.28,12.34-24.75,17.53-23.17c4.76,1.44-3.1,20.15-2.68,20.49c0,0-0.77,9.23,7.11,5.14s9.72-7.32,9.72-7.32l6.46-2.17
				c0,0,20.98-5.8,14.33-13.84c-3.21-3.88-6.6-3.88-9.19-2.91c-2.59,0.97-4.37,2.91-4.37,2.91s-4.66,6.35-4.66,9.67
				c0,3.32-1.22,12.85,7.93,13.91c9.15,1.06,19.88-7.91,19.88-7.91"/>
		</g>
		<g>
			<path class="st0" d="M9.76,36.99c0,0-14.08,24.45,0,27.42c14.08,2.96,19.27-25.56,19.27-25.56S16.8,69.65,31.99,64.62
				c15.19-5.03,24.08-28,17.41-32.45s-9.63,2.22-9.63,4.08c0,1.85-1.85,14.08,23.71,8.89c0,0-5.93-0.74-4.82,5.56
				c1.11,6.3,12.6,0.74,12.6,0.74s13.67-8.96,0.69-14.63S57.66,57.49,58.73,58.76c2.43,2.9,8.85,14.52,27.62-3.07
				c0,0,4.97-6.25,10.47-13.52c3.59-4.74,7.42-9.92,10.24-14.09c1.68-2.47,3-4.58,3.72-6.04c4.01-8.14,7.92-30.91-9.4-9.87
				c-0.25,0.31-2.59,4.38-3.28,5.98c-3.78,8.83-12.31,34.38-5.62,44.38c4.17,6.23,18.53-5.78,18.53-5.78s3.32-12.62,5.73-14.84
				c1.96-1.81,11.82-5.93,12.86-0.51c0.24,1.25,0.01,3.01-0.9,5.42c-0.56,1.48,5.92-12.03-8.58-6.99
				c-10.33,3.59-9.95,27.45,1.99,24.64c11.94-2.81,17.7-9.62,17.7-9.62s0.6,12.33,11.68,9.16c4.88-2.51,6.33-5.67,7.12-14.38
				s-1.72-9.5-4.88-10.69s-11.61,2.37-13.33,11.21s2.57,14.99,7.05,15c4.48,0.01,9.94-3.01,11.3-13.54c0,0,16.67-3.2,17.78-9.71
				c1.1-6.51,0-5.77,0-5.77s-6.77,29.3-3.25,26.55c3.52-2.75,13.45-27.21,17.96-24.51c3.71,2.22-4.01,28.59-0.99,23.31
				c3.03-5.28,12.34-24.75,17.53-23.17c4.76,1.44-3.1,20.15-2.68,20.49c0,0-0.77,9.23,7.11,5.14s9.72-7.32,9.72-7.32l6.46-2.17
				c0,0,20.98-5.8,14.33-13.84c-3.21-3.88-6.6-3.88-9.19-2.91c-2.59,0.97-4.37,2.91-4.37,2.91s-4.66,6.35-4.66,9.67
				c0,3.32-1.22,12.85,7.93,13.91c9.15,1.06,19.88-7.91,19.88-7.91"/>
		</g>
	</g>
	<g id="to">
		<path class="st1" d="M271,47.25c0,0,12.75-7.65,22.76-8.44"/>
		<path class="st1" d="M276.5,43.03c0,0,29.63-24.23,17.27-33.85s-24.23,53.9-11.38,53.96c5.49,0.03,11.72-4.71,14.4-8.24"/>
		<path class="st1" d="M316.92,41.95c-0.39-6.28-8.67-7.81-14.52,1.08c-5.62,8.54-1.57,18.94,3.73,20.11
			c5.3,1.18,10.99-2.4,12.17-13.17c1.18-10.77-3.88-5.62-3.88-5.62s-3.79,7.54,7.18,5.17s12.86-6.63,14.13-8.37"/>
	</g>
	<g id="my">
		<path class="st1" d="M210.68,99.66c0,0-4.48,18.45-2.33,25.08s14.69-32.24,18.81-23.11c0.54,9.67-1.97,23.87-1.97,23.87
			s14.94-32.62,18.09-24.05c2.12,5.75-7.37,24.87-1.25,24.87c2.99,0,7.19,1.32,15.12-7.09"/>
		<path class="st1" d="M264.89,100.31c0,0-10.39,27.31,0,25.15c10.39-2.17,15.06-11.41,17.5-22.82c2.43-11.41-7.05,35.73-7.05,35.73
			s-4.12,23.53-19.89,17.95s42.94-38.09,42.94-38.09"/>
	</g>
	<g id="page">
		<path class="st1" d="M314.39,122.36c25.93,16.14,33.15-38.15,6.31-17.22c-3.58,5.07-10.22,40.19-11.89,44.88"/>
		<path class="st1" d="M335.73,107.14c0,0-9.05,6.69,2.69,6.69c12.08-2.51,17.16-16.28,27.38-13.67c0,0-10.72-4.09-16.7,15.63
			c-1.84,6.05,4.22,18.12,14.43,5.4c10.21-12.72,6.18-20.28,6.18-20.28s-4.67,21.49,2.65,24.18c7.31,2.68,10.59-6.27,10.59-6.27
			s7.06-19.36,19.55-18.51"/>
		<path class="st1" d="M445.13,120.71c-16.43,14.05-29.52,8.57-26.78-6.9c2.74-15.48,15.71-15.36,18.09-6.67
			s-16.43,11.79-16.43,11.79l-1.32,4.28c0,0-52.09,27.29-39.45,35.98c19.34,13.3,27.51-55.09,27.51-55.09l-4.23,17.08
			c-2.99,0.8-17.09,15.41-18.89,0.3c-0.91-13.45,17.04-20.29,17.04-20.29"/>
	</g>
</svg>
